PathFileType	4	(X/Y/Z)	/Users/itak/Documents/Research/Walk-IL/dataset/trc/00246_00009.trc
DataRate	CameraRate	NumFrames	NumMarkers	Units	OrigDataRate	OrigDataStartFrame	OrigNumFrames
100.000000	100.000000	4	53	mm	100.000000	0	837
Frame#	Time	RPSI			LPSI			L3			STRN			T10			C7			CLAV			RBAK			LBAK			LSHO			LUPA			LAEL			LAOL			LWTS			LWPS			LFRA			LIFD			LHPS			LHTS			RSHO			RUPA			RAEL			RAOL			RWTS			RWPS			RFRA			RIFD			RHTS			RHPS			RBHD			LFHD			RFHD			LBHD			LHIP			RHIP			RASI			LASI			LKNE			LTHI			LANK			LTIP			LTOE			LMT1			LMT5			LHEE			RKNE			RTHI			RANK			RTIP			RTOE			RMT1			RMT5			RHEE			
		X1	Y1	Z1	X2	Y2	Z2	X3	Y3	Z3	X4	Y4	Z4	X5	Y5	Z5	X6	Y6	Z6	X7	Y7	Z7	X8	Y8	Z8	X9	Y9	Z9	X10	Y10	Z10	X11	Y11	Z11	X12	Y12	Z12	X13	Y13	Z13	X14	Y14	Z14	X15	Y15	Z15	X16	Y16	Z16	X17	Y17	Z17	X18	Y18	Z18	X19	Y19	Z19	X20	Y20	Z20	X21	Y21	Z21	X22	Y22	Z22	X23	Y23	Z23	X24	Y24	Z24	X25	Y25	Z25	X26	Y26	Z26	X27	Y27	Z27	X28	Y28	Z28	X29	Y29	Z29	X30	Y30	Z30	X31	Y31	Z31	X32	Y32	Z32	X33	Y33	Z33	X34	Y34	Z34	X35	Y35	Z35	X36	Y36	Z36	X37	Y37	Z37	X38	Y38	Z38	X39	Y39	Z39	X40	Y40	Z40	X41	Y41	Z41	X42	Y42	Z42	X43	Y43	Z43	X44	Y44	Z44	X45	Y45	Z45	X46	Y46	Z46	X47	Y47	Z47	X48	Y48	Z48	X49	Y49	Z49	X50	Y50	Z50	X51	Y51	Z51	X52	Y52	Z52	X53	Y53	Z53	

1	0	229.1376647949219	1048.071166992188	795.6311645507812	224.3444519042969	1051.734985351562	915.9600830078125	235.7253265380859	1125.017333984375	873.802978515625	-1.652370572090149	1321.008056640625	876.5783081054688	248.0019073486328	1249.663696289062	867.9495849609375	199.3803558349609	1514.50341796875	875.9769287109375	28.59667778015137	1438.440795898438	876.5149536132812	267.3828430175781	1374.095947265625	798.4547729492188	219.8225250244141	1473.626220703125	986.06298828125	130.9862823486328	1478.2568359375	1043.428588867188	153.8163452148438	1357.223999023438	1120.239501953125	122.9739379882812	1146.771118164062	1144.104248046875	195.4135589599609	1126.979736328125	1100.269897460938	20.50204849243164	919.7969360351562	1073.031982421875	39.36444091796875	900.187744140625	1154.381958007812	91.83078002929688	1041.042358398438	1153.76123046875	-0.04215696826577187	726.4539184570312	1077.846557617188	16.63177680969238	813.2649536132812	1146.21435546875	-21.87621307373047	821.78466796875	1091.43994140625	135.2543640136719	1480.155883789062	706.6087036132812	151.7081298828125	1416.168579101562	637.5987548828125	163.4830169677734	1134.259643554688	596.7404174804688	199.9757690429688	1126.24267578125	684.3352661132812	22.40535163879395	924.017578125	643.543212890625	72.00768280029297	908.3602905273438	577.3052978515625	135.4083251953125	1066.671264648438	584.89501953125	2.101728677749634	731.9973754882812	649.8211669921875	-22.65222358703613	805.5214233398438	629.0885009765625	28.34074401855469	803.6768188476562	575.6963500976562	170.2007446289062	1663.79541015625	825.7791137695312	-20.06804084777832	1734.327270507812	926.9901733398438	-23.87336349487305	1733.194702148438	827.2493286132812	131.0658111572266	1677.557983398438	959.8494873046875	119.1852798461914	987.9616088867188	1052.470581054688	132.1389923095703	1009.545104980469	686.45947265625	35.02445983886719	1053.52734375	720.7109375	21.09092140197754	1029.573974609375	1002.054626464844	106.2714462280273	504.3423767089844	1000.340454101562	99.75617980957031	646.5757446289062	1033.376220703125	191.0454711914062	35.74123382568359	973.1220703125	157.2901153564453	282.9075012207031	999.2543334960938	-28.80514144897461	43.66320419311523	937.02294921875	34.49822616577148	40.53603744506836	888.0066528320312	65.94303131103516	35.51153564453125	1002.359802246094	246.7229766845703	43.53291320800781	914.559814453125	112.364387512207	516.264404296875	721.3692626953125	81.569580078125	784.2485961914062	675.1566162109375	193.0699920654297	38.00938415527344	748.7889404296875	112.0465927124023	400.3208923339844	739.425537109375	-20.03581047058105	43.68908309936523	781.6126098632812	35.19311904907227	38.91813659667969	827.3485717773438	84.59882354736328	39.09451675415039	719.3653564453125	253.4375915527344	34.5244026184082	810.0941772460938	
2	0.01	229.14892578125	1048.064575195312	795.4934692382812	224.3609008789062	1051.752685546875	915.806640625	235.7336273193359	1125.030029296875	873.663330078125	-1.498093843460083	1320.923095703125	876.3543701171875	247.9496154785156	1249.667358398438	867.7930908203125	199.3184051513672	1514.496826171875	875.7974853515625	28.49465751647949	1438.414306640625	876.2133178710938	267.3661193847656	1374.07275390625	798.3032836914062	219.7184600830078	1473.645629882812	985.8672485351562	130.8229064941406	1478.23388671875	1043.13427734375	153.6651153564453	1357.251220703125	1120.039184570312	122.8588943481445	1146.792602539062	1143.90869140625	195.3485107421875	1127.000610351562	1100.148071289062	20.3694896697998	919.9336547851562	1072.648071289062	39.08565139770508	900.2693481445312	1153.985595703125	91.67394256591797	1041.092163085938	1153.525146484375	-0.5763183236122131	726.7706298828125	1077.407348632812	16.25342559814453	813.34619140625	1145.702880859375	-22.4852466583252	822.0474853515625	1090.97607421875	135.2897796630859	1480.130493164062	706.402587890625	151.7986602783203	1416.149047851562	637.4006958007812	163.5889129638672	1134.222778320312	596.564208984375	200.0466766357422	1126.222778320312	684.1656494140625	22.53257751464844	923.9708862304688	643.3486938476562	72.15653228759766	908.3200073242188	577.1173706054688	135.52392578125	1066.636474609375	584.6995849609375	2.150051832199097	731.9923706054688	649.6063842773438	-22.50642395019531	805.4917602539062	628.8409423828125	28.48453140258789	803.6436767578125	575.5060424804688	170.1493835449219	1663.802001953125	825.5850830078125	-20.27328872680664	1734.31689453125	926.7089233398438	-24.01028060913086	1733.122924804688	826.9376831054688	130.9590454101562	1677.549194335938	959.6347045898438	119.0483856201172	987.9627685546875	1052.286010742188	132.2570648193359	1009.5458984375	686.28515625	35.11596298217773	1053.512084960938	720.48486328125	20.87195777893066	1029.640502929688	1001.827941894531	106.2110290527344	504.35205078125	1000.242370605469	99.73773193359375	646.5844116210938	1033.249633789062	191.0366668701172	35.73980712890625	973.1284790039062	157.2658996582031	282.9024658203125	999.2000732421875	-28.80484580993652	43.66332626342773	937.0224609375	34.49014282226562	40.52299499511719	887.997314453125	65.94033050537109	35.50460815429688	1002.352783203125	246.72509765625	43.52752304077148	914.5628051757812	112.3905639648438	516.2686767578125	721.27685546875	81.64238739013672	784.2142333984375	674.9672241210938	193.0708770751953	38.00378036499023	748.7828979492188	112.0197601318359	400.30322265625	739.3707275390625	-20.03684234619141	43.68562316894531	781.6100463867188	35.19135665893555	38.92824172973633	827.34033203125	84.60622406005859	39.09539413452148	719.3596801757812	253.4270324707031	34.52079010009766	810.0902709960938	
3	0.02	229.1560668945312	1048.057006835938	795.32177734375	224.3770904541016	1051.768676757812	915.6171875	235.7398376464844	1125.045532226562	873.4861450195312	-1.330602407455444	1320.836669921875	876.0642700195312	247.90283203125	1249.67041015625	867.5923461914062	199.2426910400391	1514.490966796875	875.560546875	28.37444877624512	1438.376831054688	875.8385620117188	267.3398132324219	1374.043090820312	798.1058959960938	219.5915374755859	1473.669921875	985.6162109375	130.6452941894531	1478.220947265625	1042.769287109375	153.483154296875	1357.285522460938	1119.786010742188	122.7127990722656	1146.825317382812	1143.662353515625	195.2745666503906	1127.02587890625	1099.988403320312	20.19351196289062	920.1029663085938	1072.172485351562	38.77185821533203	900.3692626953125	1153.502197265625	91.47097015380859	1041.1533203125	1153.225463867188	-1.128198742866516	727.1536865234375	1076.880249023438	15.78555774688721	813.4508056640625	1145.097045898438	-23.16028594970703	822.3637084960938	1090.419067382812	135.3343811035156	1480.095581054688	706.1323852539062	151.9105682373047	1416.119140625	637.1437377929688	163.7181396484375	1134.173217773438	596.3381958007812	200.1303100585938	1126.197021484375	683.9505004882812	22.70413780212402	923.906982421875	643.0977172851562	72.34698486328125	908.2673950195312	576.8712158203125	135.6608123779297	1066.590698242188	584.4473876953125	2.228778600692749	731.9722290039062	649.32080078125	-22.3354549407959	805.4408569335938	628.5275268554688	28.67124557495117	803.5982666015625	575.255126953125	170.07861328125	1663.810180664062	825.3319702148438	-20.52999114990234	1734.293334960938	926.346923828125	-24.17811584472656	1733.026123046875	826.5458984375	130.8188934326172	1677.544189453125	959.3533935546875	118.8887786865234	987.9662475585938	1052.052490234375	132.3840484619141	1009.545288085938	686.0645141601562	35.22231674194336	1053.49072265625	720.1962280273438	20.59240531921387	1029.721923828125	1001.547546386719	106.1420135498047	504.3617553710938	1000.123779296875	99.70555114746094	646.5986938476562	1033.089965820312	191.0281066894531	35.73747253417969	973.134765625	157.2349548339844	282.8982849121094	999.129638671875	-28.80452346801758	43.66326141357422	937.021484375	34.48267364501953	40.50968933105469	887.986083984375	65.93784332275391	35.49818420410156	1002.346313476562	246.7278900146484	43.52305221557617	914.5655517578125	112.4168701171875	516.2724609375	721.1597900390625	81.73046875	784.1805419921875	674.7268676757812	193.0712432861328	37.99819946289062	748.7781372070312	111.9817581176758	400.2828674316406	739.2987670898438	-20.03787994384766	43.68210220336914	781.6066284179688	35.18894577026367	38.9375114440918	827.3328857421875	84.61273956298828	39.09619903564453	719.3546142578125	253.416259765625	34.51835250854492	810.0869140625	
4	0.03	229.1566162109375	1048.048461914062	795.1231079101562	224.3895874023438	1051.780151367188	915.400390625	235.7408294677734	1125.062744140625	873.2774658203125	-1.17596161365509	1320.76318359375	875.7122802734375	247.8727264404297	1249.672485351562	867.3533935546875	199.1567230224609	1514.487182617188	875.269775390625	28.24673080444336	1438.328857421875	875.4100341796875	267.3021850585938	1374.008666992188	797.8668823242188	219.4489135742188	1473.6982421875	985.3176879882812	130.4718322753906	1478.225708007812	1042.350830078125	153.2827301025391	1357.32568359375	1119.488525390625	122.5408096313477	1146.870849609375	1143.374633789062	195.1978454589844	1127.05517578125	1099.793090820312	19.98664093017578	920.295166015625	1071.62939453125	38.44979858398438	900.4813842773438	1152.959106445312	91.23055267333984	1041.222778320312	1152.873168945312	-1.625411748886108	727.5774536132812	1076.291748046875	15.25644207000732	813.572265625	1144.439331054688	-23.82735252380371	822.7107543945312	1089.799560546875	135.3847503662109	1480.051391601562	705.8036499023438	152.0370025634766	1416.076782226562	636.83447265625	163.8645935058594	1134.11181640625	596.0687255859375	200.2226257324219	1126.165283203125	683.6975708007812	22.91835403442383	923.825927734375	642.79736328125	72.57159423828125	908.2034912109375	576.57177734375	135.8103942871094	1066.534545898438	584.1452026367188	2.344983100891113	731.9320678710938	648.9725341796875	-22.14789199829102	805.3624877929688	628.1585083007812	28.89537811279297	803.5396728515625	574.9479370117188	169.9873504638672	1663.819946289062	825.0245971679688	-20.82689666748047	1734.252685546875	925.9135131835938	-24.36813735961914	1732.905517578125	826.0882568359375	130.6465301513672	1677.546020507812	959.0111694335938	118.7180404663086	987.9722290039062	1051.779174804688	132.5103759765625	1009.542846679688	685.8053588867188	35.33396911621094	1053.46337890625	719.8561401367188	20.27027130126953	1029.8115234375	1001.225830078125	106.0689163208008	504.3712158203125	999.990478515625	99.65582275390625	646.6188354492188	1032.902221679688	191.0208282470703	35.73372650146484	973.1405029296875	157.1996154785156	282.8977355957031	999.0464477539062	-28.80433082580566	43.66289138793945	937.0202026367188	34.47869491577148	40.49972152709961	887.9742431640625	65.93588256835938	35.49306488037109	1002.341186523438	246.7313385009766	43.52010345458984	914.56787109375	112.4382019042969	516.274658203125	721.0213623046875	81.82809448242188	784.1558227539062	674.446533203125	193.0712432861328	37.99355316162109	748.7753295898438	111.9320449829102	400.2612915039062	739.2109985351562	-20.03864097595215	43.67947769165039	781.6026611328125	35.18597030639648	38.94506072998047	827.3265991210938	84.61691284179688	39.09616470336914	719.35107421875	253.4064178466797	34.51760864257812	810.08447265625	
